<svg id="Group_124" data-name="Group 124" xmlns="http://www.w3.org/2000/svg" xmlns:xlink="http://www.w3.org/1999/xlink" width="401.556" height="376.456" viewBox="0 0 401.556 376.456">
  <defs>
    <clipPath id="clip-path">
      <rect id="Rectangle_131" data-name="Rectangle 131" width="401.556" height="376.456" fill="none"/>
    </clipPath>
    <clipPath id="clip-path-2">
      <rect id="Rectangle_134" data-name="Rectangle 134" width="108.721" height="23.792" fill="none"/>
    </clipPath>
  </defs>
  <g id="Group_121" data-name="Group 121">
    <g id="Group_120" data-name="Group 120" clip-path="url(#clip-path)">
      <path id="Path_28" data-name="Path 28" d="M380.024,273.741c0,3.494-80.995,6.325-180.905,6.325s-180.905-2.831-180.905-6.325,80.993-6.325,180.905-6.325,180.905,2.831,180.905,6.325" transform="translate(6.565 96.391)" fill="#191919"/>
      <path id="Path_29" data-name="Path 29" d="M172.793,216.027l-.86,2.662-9.031-2.56Z" transform="translate(58.719 77.867)" fill="#c62828"/>
      <path id="Path_30" data-name="Path 30" d="M246.188,174.848l-.267-2.581-18.553-57.7-5.405,7.925a2.025,2.025,0,0,1-2.99.41,2.072,2.072,0,0,1-.7-1.535,1.909,1.909,0,0,1,.389-1.167l.533-.758a2.381,2.381,0,0,1-1.25.327,2.719,2.719,0,0,1-2.027-.9,9.267,9.267,0,0,1-2.313.984l13.33,27.235a77.279,77.279,0,0,1-5.979,79.472l-8.6,12.143c-1.208,1.7-2.272,3.5-3.358,5.3-.205.328-.389.635-.595.963a15.523,15.523,0,0,1-13.126,7.432l-8.047.061-14.867.144H170.4l-.86,2.662L197.7,266.525a5.549,5.549,0,0,1,3.42,4.567,4.814,4.814,0,0,1,.02.532,6.075,6.075,0,0,1-.061.86l1.371.267a34.582,34.582,0,0,0,27.931-20.4l2.437-5.508,6.123-13.8,2.416-8.006a128.421,128.421,0,0,0,4.832-50.19" transform="translate(61.112 41.294)" fill="#a80f5c"/>
      <path id="Path_31" data-name="Path 31" d="M321.078,188.773a5.654,5.654,0,0,1-3.256-2.253A110.589,110.589,0,0,1,301.4,150.111l-7.371-29.794a15.429,15.429,0,0,1-1.721-20.129s-15.562.614-20.293,9.481l.88-.287a6.68,6.68,0,0,1,6.635,1.454l5.9,5.549a2.594,2.594,0,0,1,.369,3.358l18.553,57.7.265,2.581a128.369,128.369,0,0,1-4.832,50.19l-2.416,8.006-6.122,13.8-2.438,5.508a34.581,34.581,0,0,1-27.93,20.4l-1.373-.267a5.493,5.493,0,0,1-3.645,4.362l-6.409,2.192a50.628,50.628,0,0,1-18.573,2.683c-.758-.042-1.5-.083-2.253-.165l-33.87-2.989a5.767,5.767,0,0,1-4.587-3.092,5.465,5.465,0,0,1-.615-2.868,65.177,65.177,0,0,1,5.181-20.907l1.9,1.823,1.618-3.522a53.706,53.706,0,0,1-9.87-4.382,36.133,36.133,0,0,1-6.737-57.868l20.7-19.331-51.3,1.1a68.4,68.4,0,0,1-10.669.124L81,178c-.348.02-.7.061-1.024.1a10.576,10.576,0,0,0-8.969,10.443s-12.164,3.4-26.19,14.887a101.127,101.127,0,0,0-20.887,23.488A123.542,123.542,0,0,0,7.446,266.894l7.024-10.976a166.338,166.338,0,0,1,59.876-56.047,63.049,63.049,0,0,1,56.108-2.314,47.712,47.712,0,0,1,17.917,73.228l-9.235,11.671-.286,5.755,91.738,4.443,15.562.758a46.713,46.713,0,0,0,43.043-23.876c.737-1.291,1.393-2.642,2.007-4.015l5.9-9.112a83.824,83.824,0,0,0,12.41-31.965,54.54,54.54,0,0,1,23.118-11v-.022a17.259,17.259,0,0,0,1.762-7.617,17.558,17.558,0,0,0-13.311-17.037" transform="translate(2.684 36.113)" fill="#e51b77"/>
      <path id="Path_32" data-name="Path 32" d="M158.8,216.892a47.385,47.385,0,0,1-10.341,29.549l-9.236,11.671-.286,5.755-9.6-.471c.083-1.106.124-2.233.124-3.359A49.627,49.627,0,0,0,30.22,258.6l-10.156-.492A12.8,12.8,0,0,1,7.532,242.55l7.024-10.976a166.345,166.345,0,0,1,59.875-56.047,63.051,63.051,0,0,1,56.109-2.314A47.674,47.674,0,0,1,158.8,216.892" transform="translate(2.599 60.457)" fill="#a80f5c"/>
      <path id="Path_33" data-name="Path 33" d="M73.721,199.093a49.588,49.588,0,0,0-49.6,48.2l17.12.839,17.693.839,29.486,1.434,17.713.86,17.1.819c.083-1.106.124-2.231.124-3.358a49.631,49.631,0,0,0-49.638-49.637" transform="translate(8.696 71.764)" fill="#ff83c1"/>
      <path id="Path_34" data-name="Path 34" d="M82.718,229.087a.384.384,0,0,1-.056,0l-44.28-2.423a1.023,1.023,0,0,1-.965-1.077,1.01,1.01,0,0,1,1.077-.966l44.279,2.423a1.024,1.024,0,0,1-.056,2.046" transform="translate(13.487 80.962)" fill="#fff"/>
      <path id="Path_35" data-name="Path 35" d="M85.707,226.1a.4.4,0,0,1-.057,0l-44.279-2.423a1.024,1.024,0,0,1-.966-1.077,1.012,1.012,0,0,1,1.079-.966l44.277,2.423a1.024,1.024,0,0,1-.054,2.046" transform="translate(14.564 79.885)" fill="#fff"/>
      <path id="Path_36" data-name="Path 36" d="M88.7,223.11h-.057L44.36,220.684a1.022,1.022,0,0,1-.965-1.077,1.01,1.01,0,0,1,1.077-.966l44.277,2.423a1.024,1.024,0,0,1-.054,2.046" transform="translate(15.642 78.808)" fill="#fff"/>
      <path id="Path_37" data-name="Path 37" d="M91.5,220.3h-.056l-44.279-2.422A1.024,1.024,0,0,1,46.2,216.8a1.011,1.011,0,0,1,1.079-.966l44.277,2.422A1.024,1.024,0,0,1,91.5,220.3" transform="translate(16.654 77.795)" fill="#fff"/>
      <path id="Path_38" data-name="Path 38" d="M97.867,171.76a46.838,46.838,0,0,1,19.894,15.632,50.942,50.942,0,0,1,6.194,11.28,48.827,48.827,0,0,1,2.823,12.591,47.7,47.7,0,0,1-4.5,25.235,60.277,60.277,0,0,1-7.087,10.788l-7.948,9.934-.7-1.446c8.027.008,16.055.211,24.083.306q12.042.182,24.084.586-12.042.386-24.084.586c-8.028.1-16.056.3-24.083.3a.891.891,0,0,1-.7-1.445L113.7,246.1a58.183,58.183,0,0,0,6.751-10.49,46.141,46.141,0,0,0,4.529-24.192,52.9,52.9,0,0,0-2.515-12.2,49,49,0,0,0-24.6-27.454" transform="translate(35.277 61.911)" fill="#6d0944"/>
      <path id="Path_39" data-name="Path 39" d="M167.128,154.148l-20.7,19.331a35.871,35.871,0,0,0-9.153,13.576c-22.054-6.511-32.108-31.678-32.108-31.678a68.5,68.5,0,0,0,10.669-.122Z" transform="translate(37.906 55.563)" fill="#a80f5c"/>
      <path id="Path_40" data-name="Path 40" d="M269.343,182.566a56.149,56.149,0,0,0-11.365,1.167v.02a54.543,54.543,0,0,0-23.118,11,83.832,83.832,0,0,1-12.41,31.965l-5.9,9.112c-.614,1.371-1.269,2.724-2.007,4.013a53.585,53.585,0,0,0,2.11,12.922l8.538-2.949,18.942-6.532,47.344-16.362,18.942-6.552,9.85-3.4a54.894,54.894,0,0,0-50.927-34.4" transform="translate(77.334 65.806)" fill="#ff83c1"/>
      <path id="Path_41" data-name="Path 41" d="M307.664,210.352a49.63,49.63,0,1,1-85.472,34.32,48.094,48.094,0,0,1,.245-4.873l18.942-6.533a32.508,32.508,0,1,0,47.344-16.361Z" transform="translate(80.09 75.822)" fill="#3f1085"/>
      <path id="Path_42" data-name="Path 42" d="M284.187,215.169a32.51,32.51,0,1,1-47.344,16.361ZM282.1,242.936a14.805,14.805,0,1,0-14.806,14.8,14.814,14.814,0,0,0,14.806-14.8" transform="translate(84.626 77.558)" fill="#e5e5fd"/>
      <path id="Path_43" data-name="Path 43" d="M262.6,224.7A14.805,14.805,0,1,1,247.8,239.5,14.814,14.814,0,0,1,262.6,224.7" transform="translate(89.319 80.992)" fill="#3a3635"/>
      <path id="Path_44" data-name="Path 44" d="M262.6,224.7A14.805,14.805,0,1,1,247.8,239.5,14.814,14.814,0,0,1,262.6,224.7" transform="translate(89.319 80.992)" fill="#3f1085"/>
      <path id="Path_45" data-name="Path 45" d="M106.147,238.5l17.1.819a49.632,49.632,0,0,1-99.151-3.358c0-.472,0-.963.041-1.434l17.12.839a5.788,5.788,0,0,0-.02.595,32.506,32.506,0,0,0,64.913,2.539" transform="translate(8.685 84.535)" fill="#3f1085"/>
      <path id="Path_46" data-name="Path 46" d="M83.894,237.415l17.713.86a32.506,32.506,0,0,1-64.914-2.539,5.789,5.789,0,0,1,.02-.595l17.693.839a14.792,14.792,0,0,0,29.488,1.434" transform="translate(13.226 84.758)" fill="#e5e5fd"/>
      <path id="Path_47" data-name="Path 47" d="M49.713,235.76,79.2,237.194a14.792,14.792,0,0,1-29.488-1.434" transform="translate(17.919 84.98)" fill="#3f1085"/>
      <path id="Path_48" data-name="Path 48" d="M236.518,95.522V126.34H228.88c1.126-13.7-.02-30.818-.02-30.818Z" transform="translate(82.494 34.431)" fill="#ff83c1"/>
      <path id="Path_49" data-name="Path 49" d="M219.335,122a15.427,15.427,0,0,1-1.72-20.129,14.764,14.764,0,0,1,1.556-1.843,15.42,15.42,0,0,1,10.893-4.5h3.911s1.147,17.119.02,30.818h-3.932A15.439,15.439,0,0,1,219.335,122" transform="translate(77.377 34.431)" fill="#a80f5c"/>
      <path id="Path_50" data-name="Path 50" d="M103.9,152.538v4.674L67.234,159.2l-1.585.322-22.137-6.987Z" transform="translate(15.684 54.983)" fill="#3a3635"/>
      <path id="Path_51" data-name="Path 51" d="M119.583,144.477v26.4a5.105,5.105,0,0,1-5.1,5.106H5.1A5.1,5.1,0,0,1,0,170.874V92.608a5.1,5.1,0,0,1,5.1-5.1H114.478a5.1,5.1,0,0,1,5.1,5.1Z" transform="translate(0 31.541)" fill="#ff83c1"/>
      <path id="Path_52" data-name="Path 52" d="M195.814,153.622l4.2,53.486-8.682,2.212-15.03,3.809Z" transform="translate(63.548 55.373)" fill="#2e0968"/>
      <path id="Path_53" data-name="Path 53" d="M211.473,138.22l.389,5.079a22.328,22.328,0,0,0-17.549-10.137L127,129.374l2.54-2.909a6.266,6.266,0,0,1,4.4-2.109l57.562-2.52,1.392-.061a17.872,17.872,0,0,1,18.573,16.444" transform="translate(45.779 43.889)" fill="#2e0968"/>
      <path id="Path_54" data-name="Path 54" d="M191.991,194.563l3.583,15.625-3.4,5.938a7.785,7.785,0,0,1-12.082,1.8l-3.932-3.685-1.7-8.253v-.02l2.5-7.6Z" transform="translate(62.886 70.131)" fill="#d8667c"/>
      <path id="Path_55" data-name="Path 55" d="M200.368,205.576a2.583,2.583,0,0,0-3.768.819l-3.4,5.938a7.787,7.787,0,0,1-12.082,1.8l-3.932-3.687-2.007-1.884-3.563,11.386v.02l14.867-.143,8.047-.061a15.526,15.526,0,0,0,13.127-7.434c.2-.328.389-.635.593-.962Z" transform="translate(61.86 73.923)" fill="#303d89"/>
      <path id="Path_56" data-name="Path 56" d="M158.395,17.959c.1,2.907.778,7.925,3.87,11.918a10.781,10.781,0,0,0-5.488,1.577,20.325,20.325,0,0,1-2.6,1.823c-2.579,1.29-5.242.122-7.823.389a3.748,3.748,0,0,0-2.416,1.781,2.476,2.476,0,0,0-.224.472l-.8-.205,2.17-8.6a6.942,6.942,0,0,1,5.3-5.016,20.94,20.94,0,0,0,8.006-4.137" transform="translate(51.514 6.473)" fill="#fd97a7"/>
      <path id="Path_57" data-name="Path 57" d="M158.831,46.813a7.6,7.6,0,0,1-1.228-.328,3.46,3.46,0,0,1-.43-.143,15.28,15.28,0,0,0-5.775,3.011c-2.805,2.272-5.8,6.183-6.778,12.8l-8.54-8.54a15.433,15.433,0,0,0-9.85-4.484v-.02l5.591-5.714a31.537,31.537,0,0,0,6.859-10.73l1.618-4.28a3.979,3.979,0,0,0,2.233.676,3.924,3.924,0,0,0,2.866-1.208l-1.086,2.642a2.462,2.462,0,0,0,1.29,3.194,2.606,2.606,0,0,0,.963.184,2.443,2.443,0,0,0,2.314-1.6l.041-.122.8.2c-.287.963.573,1.6.941,2.683.778,2.294,1.045,4.485,2.4,6.615a12.423,12.423,0,0,0,1.475,2.273,13.444,13.444,0,0,0,4.28,2.866Z" transform="translate(45.5 10.039)" fill="#fd97a7"/>
      <path id="Path_58" data-name="Path 58" d="M154.126,23.873a1.169,1.169,0,1,0-1.169,1.169,1.169,1.169,0,0,0,1.169-1.169" transform="translate(54.713 8.184)" fill="#042128"/>
      <path id="Path_59" data-name="Path 59" d="M155.056,20.52a16.98,16.98,0,0,1-1.392,1.148,14.217,14.217,0,0,0-1.2.906,8.607,8.607,0,0,0-1.185.846c-.437.291-.815.667-1.412,1.067l-.114-.037a5.632,5.632,0,0,1,2.013-2.839,7.149,7.149,0,0,1,3.283-1.209Z" transform="translate(53.978 7.354)" fill="#1c54d1"/>
      <path id="Path_60" data-name="Path 60" d="M147.14,40.819a12.039,12.039,0,0,0,3.553,2.677,12.721,12.721,0,0,0,1.253.5,15.278,15.278,0,0,0-5.775,3.009c-7.028-4.709-5.235-12.648-5.235-12.648Z" transform="translate(50.727 12.384)" fill="#d8667c"/>
      <path id="Path_61" data-name="Path 61" d="M166.331,16.766c-4.567.635-10.422.205-17.876-2.088l-27.44,18.45s-.532,12.757,12.7,15.01l.023-.026c3.256,1.14,6.727-1.755,7.189-4.9a17.65,17.65,0,0,1,.9-4.484,7.086,7.086,0,0,0,.268-3.5c-.045-.7.063-1.352.068-2.019l.03-.078-.03-.023c0-.09,0-.178,0-.268a2.883,2.883,0,0,0-.343.008,4.033,4.033,0,1,1,6.642-3.076L147.287,32.6,146.2,35.237a2.462,2.462,0,0,0,1.29,3.194,2.606,2.606,0,0,0,.963.184,2.443,2.443,0,0,0,2.314-1.6l.041-.122,2.17-8.6a6.945,6.945,0,0,1,5.3-5.017,20.913,20.913,0,0,0,8.006-4.136,22.32,22.32,0,0,1,.041-2.355Z" transform="translate(43.619 5.291)" fill="#1c54d1"/>
      <path id="Path_62" data-name="Path 62" d="M154.555,8.07h19.883s-2.866,9.42-15.379,11.078c-4.566.635-10.422.205-17.876-2.088Z" transform="translate(50.89 2.909)" fill="#fdbc0b"/>
      <path id="Path_63" data-name="Path 63" d="M163.507,10.979l-13.372,8.99L122.7,38.419l-.819.552c-8.458-12.942-5.653-21.932-1.843-27.174,2.233-3.092,7.331-6.572,10.812-8.149,24.921-11.324,32.662,7.33,32.662,7.33" transform="translate(41.938 0)" fill="#f99410"/>
      <path id="Path_64" data-name="Path 64" d="M129.087,3.658a18.607,18.607,0,0,1,5.741,1.5,19.342,19.342,0,0,1,5.077,3.182,16.013,16.013,0,0,1,3.764,4.675,16.594,16.594,0,0,1,1.873,5.634,25.552,25.552,0,0,0-2.549-5.23,19.41,19.41,0,0,0-3.76-4.307,27.563,27.563,0,0,0-10.146-5.455" transform="translate(46.53 1.319)" fill="#af680b"/>
      <path id="Path_65" data-name="Path 65" d="M163.056,27.866c.692.732.935,1.79-.011,2.137l-.5.135a4.946,4.946,0,0,0-3.243,4.643v8.791a3.926,3.926,0,0,1-3.915,3.932,14.187,14.187,0,0,1-2.74-.287h-.02a13.94,13.94,0,0,1-4.3-2.887,12.354,12.354,0,0,1-1.475-2.273c-1.351-2.129-1.618-4.321-2.4-6.615-.369-1.086-1.229-1.72-.941-2.681a2.476,2.476,0,0,1,.224-.472,3.748,3.748,0,0,1,2.416-1.781c2.581-.267,5.243.9,7.823-.389a20.421,20.421,0,0,0,2.6-1.823,10.768,10.768,0,0,1,5.488-1.577,14.9,14.9,0,0,0,.988,1.147" transform="translate(51.71 9.631)" fill="#fff"/>
      <path id="Path_66" data-name="Path 66" d="M147.806,32.089a.247.247,0,0,1-.175-.071l-6.986-6.659a.255.255,0,1,1,.352-.37l6.985,6.659a.258.258,0,0,1,.011.362.265.265,0,0,1-.186.079" transform="translate(50.668 8.982)" fill="#424242"/>
      <path id="Path_67" data-name="Path 67" d="M148.6,40a.256.256,0,0,1-.195-.088l-9.976-11.541a.256.256,0,1,1,.388-.335l9.978,11.541a.257.257,0,0,1-.027.361A.251.251,0,0,1,148.6,40" transform="translate(49.875 10.075)" fill="#424242"/>
      <path id="Path_68" data-name="Path 68" d="M147.324,33.235a14.411,14.411,0,0,0,2.849.137,16.331,16.331,0,0,0,2.807-.344,23.229,23.229,0,0,0,5.368-1.868,13.255,13.255,0,0,1-2.5,1.468,14.037,14.037,0,0,1-2.771.9,11,11,0,0,1-5.756-.294" transform="translate(53.104 11.232)" fill="#424242"/>
      <path id="Path_69" data-name="Path 69" d="M146.977,34.926a17.932,17.932,0,0,0,2.5,1.642,15.675,15.675,0,0,0,2.707,1.205,17.653,17.653,0,0,0,5.849.989A11.367,11.367,0,0,1,155,38.9a12.361,12.361,0,0,1-2.986-.645,12.057,12.057,0,0,1-5.04-3.329" transform="translate(52.979 12.589)" fill="#424242"/>
      <path id="Path_70" data-name="Path 70" d="M143.32,26.84l-1.167,2.826a3.921,3.921,0,0,1-2.866,1.208,4.034,4.034,0,0,1,0-8.067,4.029,4.029,0,0,1,4.034,4.034" transform="translate(48.753 8.22)" fill="#d8667c"/>
      <path id="Path_71" data-name="Path 71" d="M162.853,96.437l-22.1,5.364,11.958,27.44s-.614,15.03-5.016,23.344a6.266,6.266,0,0,0-4.4,2.109l-2.54,2.909a4.874,4.874,0,0,0-3.767,1.454L117,179.7a22.344,22.344,0,0,1-5.938,4.382l-12.327,6.183-2.416-.88a9.989,9.989,0,0,1-4.362-3.113,9.88,9.88,0,0,1-2.13-4.894,100.371,100.371,0,0,1-.982-14.006,98.841,98.841,0,0,1,1.638-18.041L100.97,92.465A90.113,90.113,0,0,1,118.7,53.086a25.292,25.292,0,0,1,19.863-9.644,10.777,10.777,0,0,1,1.147.061,15.433,15.433,0,0,1,9.85,4.484l8.54,8.54a3.263,3.263,0,0,1,.348,4.2l-2.068,2.888Z" transform="translate(32.026 15.659)" fill="#fdbc0b"/>
      <path id="Path_72" data-name="Path 72" d="M112.589,61.512c.771,2.992,1.507,5.99,2.177,9,.652,3.015,1.385,6.013,1.969,9.042l1.833,9.067,1.668,9.1-.824-.537c3.226-.731,6.474-1.35,9.719-1.989,3.242-.656,6.5-1.218,9.773-1.752-3.178.933-6.361,1.841-9.567,2.656s-6.4,1.68-9.621,2.42l-.684.156-.14-.7-1.818-9.07-1.656-9.1c-.58-3.028-1.007-6.087-1.518-9.127-.494-3.046-.92-6.1-1.31-9.168" transform="translate(40.583 22.172)" fill="#a34a0d"/>
      <path id="Path_73" data-name="Path 73" d="M103.311,140.533c2.25-1.114,4.462-2.283,6.583-3.609,2.154-1.261,4.243-2.63,6.268-4.079a78.356,78.356,0,0,0,11.312-9.658,56.8,56.8,0,0,0,8.929-11.813l1.754-3.281c.527-1.124.929-2.3,1.407-3.449l.721-1.728.51-1.8c.329-1.2.68-2.407,1.043-3.615a43.515,43.515,0,0,1-4.394,14.429,53.185,53.185,0,0,1-8.866,12.319,70.7,70.7,0,0,1-11.757,9.567,64.421,64.421,0,0,1-13.509,6.714" transform="translate(37.239 35.146)" fill="#a34a0d"/>
      <path id="Path_74" data-name="Path 74" d="M96.539,139.048q5.016-.537,9.92-1.477c3.269-.643,6.514-1.377,9.705-2.3a96.313,96.313,0,0,0,9.455-3.139c3.132-1.145,6.115-2.63,9.171-4.05a50.663,50.663,0,0,1-8.706,5.137,57.629,57.629,0,0,1-9.506,3.529,63.56,63.56,0,0,1-9.938,1.985,50.908,50.908,0,0,1-10.1.316" transform="translate(34.798 46.167)" fill="#a34a0d"/>
      <path id="Path_75" data-name="Path 75" d="M127.606,46.94a16.542,16.542,0,0,1,5.062,2.249,22.728,22.728,0,0,1,4.287,3.571,23.664,23.664,0,0,1,3.3,4.494,23.147,23.147,0,0,1,1.241,2.487c.343.858.642,1.735.917,2.611-.916-1.6-1.811-3.182-2.849-4.664l-.774-1.111-.837-1.06c-.541-.718-1.156-1.378-1.759-2.041a32.294,32.294,0,0,0-3.992-3.62,28.349,28.349,0,0,0-4.6-2.915" transform="translate(45.996 16.92)" fill="#a34a0d"/>
      <path id="Path_76" data-name="Path 76" d="M99.488,72.47q.284,3.992.767,7.934c.339,2.63.683,5.257,1.147,7.865.435,2.612.943,5.211,1.5,7.8.539,2.6,1.226,5.16,1.843,7.759-.507-1.233-1-2.476-1.439-3.737-.415-1.268-.83-2.539-1.185-3.827a72.132,72.132,0,0,1-1.755-7.824,73.173,73.173,0,0,1-.914-7.964q-.114-2-.14-4.005c.027-1.336.034-2.673.171-4" transform="translate(35.799 26.122)" fill="#a34a0d"/>
      <path id="Path_77" data-name="Path 77" d="M223,141.282a22.332,22.332,0,0,0-17.549-10.137l-67.31-3.787a4.874,4.874,0,0,0-3.767,1.454l-19.986,20.641a22.322,22.322,0,0,1-5.938,4.382L96.118,160.02c1.5,3.4,7.044,4.647,12.307,5.016a68.5,68.5,0,0,0,10.669-.122l51.3-1.106,19.1-.41-23.733,78.674,1.823.513,19.351,5.487.041.02,9.891-.1,5.836-17.774v-.02l2.5-7.6,19.514-59.508.819-2.518A22.309,22.309,0,0,0,223,141.282" transform="translate(34.646 45.904)" fill="#591c9d"/>
      <path id="Path_78" data-name="Path 78" d="M211.3,234.756a4.815,4.815,0,0,1,.02.532,6.074,6.074,0,0,1-.061.86,5.493,5.493,0,0,1-3.645,4.363l-6.41,2.19a50.6,50.6,0,0,1-18.573,2.683c-.758-.041-1.494-.082-2.252-.165l-33.87-2.989a5.767,5.767,0,0,1-4.587-3.092,5.46,5.46,0,0,1-.614-2.867,65.136,65.136,0,0,1,5.181-20.907l1.9,1.823,1.228,1.186a12.019,12.019,0,0,0,14.191,1.823l6.819-3.83h.061l9.031,2.56,28.156,11.262a5.548,5.548,0,0,1,3.42,4.567" transform="translate(50.931 77.629)" fill="#4e58af"/>
      <path id="Path_79" data-name="Path 79" d="M149.419,212.053l-1.29,2.805-1.618,3.522,1.228,1.188a12.023,12.023,0,0,0,14.191,1.823l6.819-3.83.02-.02Z" transform="translate(52.811 76.435)" fill="#fd97a7"/>
      <path id="Path_80" data-name="Path 80" d="M208.735,231.293a29.8,29.8,0,0,1-4,1.365l-4.061,1.165-8.167,2.155a28.262,28.262,0,0,1-8.5.831c-2.846-.211-5.616-.5-8.428-.752-5.6-.589-11.2-1.133-16.789-1.766l-8.387-.969c-.7-.1-1.388-.154-2.106-.29a8.148,8.148,0,0,1-3.8-1.888,16.454,16.454,0,0,1-1.424-1.566,9.639,9.639,0,0,0,3.31,2.507,7.7,7.7,0,0,0,1.984.558c.672.09,1.393.112,2.09.169l8.414.679c5.609.465,11.209,1.018,16.814,1.526,2.792.278,5.615.607,8.379.843a30.221,30.221,0,0,0,8.259-.661l8.228-1.871,4.114-.937,2.05-.5a13.017,13.017,0,0,0,2.016-.6" transform="translate(51.573 82.752)" fill="#303d89"/>
      <path id="Path_81" data-name="Path 81" d="M242.332,122.8a2.594,2.594,0,0,1,.369,3.359l-5.406,7.925a2.025,2.025,0,0,1-2.989.41,2.074,2.074,0,0,1-.7-1.536,1.9,1.9,0,0,1,.389-1.167l.532-.758a2.608,2.608,0,0,0,1.434-1.986l.9-1.269a.969.969,0,0,0-.491-1.5l-1.6-.513a3.769,3.769,0,0,0-2.97.267l-10.135,5.406a4.813,4.813,0,0,1-4.056.163l-5.753-2.518-17.508,1.229c-1.024.082-2.069.122-3.092.163a87.75,87.75,0,0,1-17.959-1.208l-21.05-3.645a17.777,17.777,0,0,1-13.29-10.422L127,87.761,149.1,82.4l2.948,10.484a17.03,17.03,0,0,0,9.01,10.709l13.679,6.594a72.586,72.586,0,0,0,17.528,5.836l18.328,3.563a19.37,19.37,0,0,0,9.726-.635l8.6-2.866.88-.287a6.679,6.679,0,0,1,6.635,1.454Z" transform="translate(45.779 29.7)" fill="#fd97a7"/>
      <path id="Path_82" data-name="Path 82" d="M211.611,114.838a.969.969,0,0,1,.491,1.5l-.9,1.269a3.062,3.062,0,0,0,.041-.43,2.734,2.734,0,1,0-4.751,1.843,9.294,9.294,0,0,1-2.314.982,21.735,21.735,0,0,1-8.477.45v-.02a4.462,4.462,0,0,0,1.208-.43l10.137-5.406a3.759,3.759,0,0,1,2.969-.265Z" transform="translate(70.541 41.141)" fill="#d8667c"/>
      <path id="Path_83" data-name="Path 83" d="M205.85,114.366a2.727,2.727,0,0,0-2.744,2.724,2.754,2.754,0,0,0,2.744,2.744,2.368,2.368,0,0,0,1.249-.328,2.608,2.608,0,0,0,1.434-1.986,3.062,3.062,0,0,0,.041-.43,2.709,2.709,0,0,0-2.724-2.724" transform="translate(73.21 41.224)" fill="#3a3635"/>
      <path id="Path_84" data-name="Path 84" d="M151.771,123.1a16.572,16.572,0,0,1-9.876-4.353,17.241,17.241,0,0,1-3.419-4.386c-.9-1.677-1.507-3.3-2.239-4.951-1.416-3.29-2.8-6.593-4.1-9.933-1.333-3.326-2.618-6.673-3.8-10.067,1.684,3.174,3.26,6.393,4.79,9.633,1.56,3.227,3.039,6.489,4.484,9.765.746,1.607,1.418,3.345,2.179,4.84a18.305,18.305,0,0,0,3.013,4.166,19.327,19.327,0,0,0,8.963,5.285" transform="translate(46.261 32.227)" fill="#a34a0d"/>
    </g>
  </g>
  <g id="Group_123" data-name="Group 123" transform="translate(8.495 153.753)">
    <g id="Group_122" data-name="Group 122" clip-path="url(#clip-path-2)">
      <path id="Path_85" data-name="Path 85" d="M53.864,120.77h-.045a1.774,1.774,0,0,0-.657.612q-1.959,2.012-2.6,2.013c-.147-.11-.219-.182-.219-.219v-.393a4.759,4.759,0,0,1,.437-1.05,2.943,2.943,0,0,0,.525-.7c-.072-.144-.131-.219-.174-.219H51a2.011,2.011,0,0,0-.524.088q-.9,1.084-1.575,1.752a4.194,4.194,0,0,1-1.751,1.094c-.059-.015-.116-.087-.175-.219a5.408,5.408,0,0,1,.117-.781,8.757,8.757,0,0,0,.76-1.088s.331-.658.171-.755a1.085,1.085,0,0,0-.267-.14.4.4,0,0,0-.475.053l-.005.005A5.026,5.026,0,0,0,46.2,122.77a2.787,2.787,0,0,1-1.42.815H44.7c-.155,0-.235-.087-.244-.263l-.02-.219a7.118,7.118,0,0,1,.457-2.144c-.011-.269-.2-.46-.556-.569a3.742,3.742,0,0,0-1.486.918h-.034a1.157,1.157,0,0,0-1.027-.788H41.56q-.918.329-.906.438a5.65,5.65,0,0,0-1.454,1.355h-.076v-.044a3.491,3.491,0,0,1,.015-.414c.08-.151.156-.309.227-.473l.263-.337-.014-.027-.1-.19c-.215-.595-.986-.022-.986-.022q-.275.2-.086,1.069a.237.237,0,0,0-.022.046,5.033,5.033,0,0,1-1.668,1.469,4.7,4.7,0,0,1-1.2.268q-.888,0-.887-.5V123l.491-.23a3.694,3.694,0,0,0,1.762-1.367,1.7,1.7,0,0,0,.294-1.015.875.875,0,0,0-.6-.373,2.637,2.637,0,0,0-1.345.569,3.466,3.466,0,0,0-1.422,1.86h-.184l.042.536a2.121,2.121,0,0,1-.638.408,4.747,4.747,0,0,1-1.2.269c-.476,0-.76-.109-.852-.324a.737.737,0,0,1,.059-.375l.4-.186a3.678,3.678,0,0,0,1.759-1.367,1.7,1.7,0,0,0,.3-1.015.875.875,0,0,0-.6-.373,2.632,2.632,0,0,0-1.345.567,3.463,3.463,0,0,0-1.423,1.861h-.186l.057.656c.018.052.035.1.056.15a8.62,8.62,0,0,1-.963,1.359,18.218,18.218,0,0,0-1.551,1.641q-.482.373-1.434.974a5.605,5.605,0,0,1-1.366.48h-.155a1.806,1.806,0,0,1-1.5-.48,2.969,2.969,0,0,1-.592-1.423l-.075-.743c.01-.087-.037-.416-.052-.766a9.881,9.881,0,0,1,.249-2.143c.065-.175.367-2.15.667-3.434a6.13,6.13,0,0,0,.231-2.925l0-.027h-.005a1.335,1.335,0,0,0-.38-.722.039.039,0,0,0-.03-.022.874.874,0,0,0-.7-.371,3.42,3.42,0,0,0-.634.076,3.951,3.951,0,0,0-1.569,1.092.743.743,0,0,0-.094.091,22.61,22.61,0,0,0-2.832,3.5l-.007.01a1.35,1.35,0,0,1-.19-.075,12.117,12.117,0,0,0,.317-2.92L17.4,116.1a1.25,1.25,0,0,0-1.012-1.192.814.814,0,0,0-.15-.031c-.018,0-.033-.008-.052-.011l-.01,0a1.558,1.558,0,0,0-.3.008l-.022-.012-.01.015c-.824.109-2.521.876-4.907,4.692v0c-.06.094-.118.19-.178.288h-.011v.016c-.113.186-.23.381-.348.584h0v.005q-.247.422-.5.89H9.89c-.031-.007-.125-.071-.005-.62q.559-2.065,1.077-4.826c-.186-.276-.365-.415-.525-.415l-.185.044q-.263,0-.471,1.3L9.5,118.407l-.363,1.313a5.433,5.433,0,0,0-.193.7l-.029.063-.2.747c-.1.306-.188.623-.267.954l0,.011-.7,2.583.005.026c-.041.11-.083.229-.125.363-.14.344-.292.8-.461,1.38q-.929,2.624-.918,2.766a1.258,1.258,0,0,0,.393.558c.416,0,.638-.137.667-.415l.735-2.309A15.524,15.524,0,0,1,9.711,123.3a12.992,12.992,0,0,1,.668-1.224,5.18,5.18,0,0,1,.853-1.5q.461-.722,1.77-2.428a9.05,9.05,0,0,0,.854-.886q1.673-1.673,2.3-1.686c.2,0,.321.264.371.789.008.073.019.216.031.424l-.018-.073a12.44,12.44,0,0,1-.739,4.536.415.415,0,0,0-.023.069,22.52,22.52,0,0,1-1.318,3.179,4.8,4.8,0,0,0-.547,1.6v.044c.167.35.335.524.5.525h.076c.125,0,.264-.1.415-.306l1.169-3.371a9.574,9.574,0,0,1,.888-1.813l1.465-2.2,1.291-1.652c.415-.5.652-.743.712-.743a4.437,4.437,0,0,1,1.967-1.224.345.345,0,0,1,.317.249v0c.018.048.518,1.491-.876,6.746a1.1,1.1,0,0,0-.011.133,16,16,0,0,0-.139,2.975.676.676,0,0,0,.007.117h0a6.623,6.623,0,0,0,.118.85h0a2.882,2.882,0,0,0,1.126,1.608,3.405,3.405,0,0,0,1.445.556h.261l1.389-.3a15.439,15.439,0,0,1,1.509-.9,1.961,1.961,0,0,1,.558-.449,2.6,2.6,0,0,1,.547-.525c.788-.865,1.165-1.356,1.208-1.356a3.384,3.384,0,0,1,.762-1.045,1.788,1.788,0,0,0,1.233.423,1.679,1.679,0,0,1,.472-.076,2.784,2.784,0,0,0,1.612-.8,1.719,1.719,0,0,0,1.6.876,1.668,1.668,0,0,1,.469-.076,4.05,4.05,0,0,0,2.064-1.068,8.007,8.007,0,0,1-.841,1.581q.02.341.439.438h.075c.2,0,.411-.351.648-1.049q2.075-2.747,3.368-3.151c.223.015.336.059.336.132l.045.524a3.43,3.43,0,0,0-.219.7c-.4.393-.595.714-.582.962l.012.088c.072.176.178.261.318.261h.065a.609.609,0,0,0,.328-.174,5.6,5.6,0,0,1,1.958-2.318.25.25,0,0,1,.12.044,10.356,10.356,0,0,0-.429,1.574l.014.219a3.034,3.034,0,0,0,.076.482,1.142,1.142,0,0,0,1.1.786,2.009,2.009,0,0,0,1.239-.645q.224.765.869.766a2.04,2.04,0,0,0,.525-.087q.414,0,1.792-1.358.408,1.1,1.182,1.1h.045a2.469,2.469,0,0,0,1.616-.743,7.88,7.88,0,0,0,1.773-2.582c0-.05-.031-.079-.088-.087m-21-.1c-.012.005-.014.018-.01.039v.044a2.75,2.75,0,0,1-1.619,1.337l-.01-.008a3.071,3.071,0,0,1,1.638-1.412m1.966,1.453c.023-.007.046-.015.067-.023.107-.156.212-.3.317-.427a2.532,2.532,0,0,1,1.332-1c-.011.005-.012.019-.01.041v.042a2.768,2.768,0,0,1-1.639,1.347l-.02.031h-.05l0-.01" transform="translate(-6.244 -112.426)" fill="#161616"/>
      <path id="Path_86" data-name="Path 86" d="M41.076,116.631a.352.352,0,0,1,.044.11,1.4,1.4,0,0,0-.086.449c0,.065.072.176.219.327v.012c-.088,0-.132.048-.132.141v.143h.25a3.765,3.765,0,0,0,.735-1.751q0-1.1-.887-1.246c-.241,0-.389.17-.449.513a1.12,1.12,0,0,1,.35.679,5.307,5.307,0,0,1-.044.623" transform="translate(6.201 -112.367)" fill="#161616"/>
      <path id="Path_87" data-name="Path 87" d="M46.9,119.95a5.784,5.784,0,0,0-2.486,1.033,7.407,7.407,0,0,0-.875.569l-.087-.044a3.3,3.3,0,0,1-.789-2.013c0-.246.264-.408.789-.482a.079.079,0,0,1,.087.068.051.051,0,0,1,0,.02,2.826,2.826,0,0,1-.175.833.381.381,0,0,0,.35.261.351.351,0,0,1,.132-.044c.233,0,.422-.351.569-1.05,0-.422-.264-.686-.789-.786a5.036,5.036,0,0,0-1.137.261q-.567,0-.654,1.007a4.737,4.737,0,0,0,1.05,2.407v.087l-.045.086a12.178,12.178,0,0,0-1.97,1.752c-.438.373-.654.679-.654.92v.219q0,.612,1.18.788A3.339,3.339,0,0,0,43.1,125.1a2.575,2.575,0,0,0,1.181-1.486,2.53,2.53,0,0,0-.35-1.314l.174-.219q1.894-1.061,2.778-1.554c.461-.407.751-.611.876-.611v-.132l-.044-.088a1.4,1.4,0,0,0-.818.26m-3.446,3.609a3.482,3.482,0,0,0-.264.569,2.976,2.976,0,0,1-1.793,1.005q-.282,0-.306-.131v-.045q0-.435,2.1-2.143h.176a1.64,1.64,0,0,1,.088.395Z" transform="translate(6 -111.106)" fill="#161616"/>
      <path id="Path_88" data-name="Path 88" d="M62.017,127.834l-.154.1-.174.03.022-.012a2.8,2.8,0,0,0-.822.317.35.35,0,0,0-.008-.054,4.066,4.066,0,0,0-.645.186.124.124,0,0,0-.023-.012,14.657,14.657,0,0,0-2.024.23l-.278.029-.224-.094h-.1a14.321,14.321,0,0,1-3.392-.95l-1.967-.975-.471-.329v-.01c0,.007.037-.016.109-.067a4.605,4.605,0,0,0,.974-.437,11.666,11.666,0,0,0,1.684-.931,24.341,24.341,0,0,0,4.209-3.488l1.782-1.815c.3-.431.478-.645.536-.645a4.384,4.384,0,0,0,.937-1.39,8.533,8.533,0,0,0,1.283-2.318.482.482,0,0,0-.273-.415h-.166l-.261.054q-.306.594-.622,1.152a26.142,26.142,0,0,1-2.189,3.174.9.9,0,0,0-.267.325l-.084.1a1.079,1.079,0,0,0-.358.385l0,.026a22.885,22.885,0,0,1-2.872,2.764c-.121.039-.208.088-.224.178q-.459.357-.95.7c-.035.014-.08.023-.08.037a.125.125,0,0,0-.078.071q-.473.32-.978.616c-.069.02-.144.038-.226.064l-.015.076c-.248.14-.5.276-.76.405q-.494.237-.657.313c-.024.012-.05.024-.076.035.015-.05.031-.1.045-.15h0l3.488-8.62a19.756,19.756,0,0,1,1.159-3.017c0-.307-.141-.46-.427-.46a.551.551,0,0,0-.458.307l-2.415,6.254H53.52v.035l-.325.845,0,0a.6.6,0,0,0-.072.188v.005l-.161.414-.244.627-.067.176-.132.34-.064.169-.06.148-.3.795-.154.4v0l-.071.182a.094.094,0,0,1-.071.029v.154l-.034.088-.112.287-.008,0a.141.141,0,0,0-.045.141l-.178.461-.02.054-.063-.054c-.161.453-.309.679-.448.679a.6.6,0,0,1-.3-.132,8.256,8.256,0,0,0-2.778-1.246l-.088.053-.249-.044a2.11,2.11,0,0,0-.712.264c-.241.2-.4.3-.48.3a2.236,2.236,0,0,0-.371,1.249v.056c.007.219.059.348.151.381q.351.7,1.707.7a.337.337,0,0,1,.141-.033c.015,0,.094.01.241.033l.956-.129.248-.059a4.444,4.444,0,0,1,1.288-.328h.012c0,.011.031.026.067.05l-.188.486-.031.076-.1.25-.022.054-.486,1.261-.082.208-.34.886,0,.01-.14.358-.174.453-.646,1.675,0,.008L47.4,135.47l-.384,1v.284s.188.137.3,0l0-.005a2.516,2.516,0,0,0,.37-.841l.024-.056c.01-.016.019-.031.016-.038l.012-.027c.075,0,.071-.056.052-.121.227-.533.52-1.224.839-1.981.246-.584.507-1.205.769-1.827a1.536,1.536,0,0,0,.084-.2l1.155-2.641-.046,0,.3-.728.012-.03c.037-.088.072-.17.1-.246l0-.015a2.214,2.214,0,0,1,.133-.244c.019-.076.035-.143.053-.2.087-.205.137-.329.143-.346h.045l2.264,1.137h.132l.031-.022.044.031a8.46,8.46,0,0,0,3.271.952h.12l-.034.016a1.022,1.022,0,0,1,.264.038l.078-.054q.753.075.984.076a.476.476,0,0,0,.25-.067c0-.056.073-.058.219-.01,1-.188,1.55-.286,1.652-.286a6.149,6.149,0,0,1,1-.479,2.169,2.169,0,0,0,1.158-.559l-.1-.25a2.449,2.449,0,0,1-.7.112m-12.16-1.686c-.02-.012-.039-.026-.058-.035a7.618,7.618,0,0,1-2.435.429c-.393-.161-.59-.32-.59-.482q.131-.831.82-.831h.284a.927.927,0,0,0,.482.166,4.837,4.837,0,0,1,1.438.718l.06-.02Zm4.786-2.008.071-.044a.148.148,0,0,1-.071.044" transform="translate(8.054 -113.016)" fill="#161616"/>
      <rect id="Rectangle_132" data-name="Rectangle 132" width="0.197" height="0.23" transform="translate(103.706 3.073)" fill="#161616"/>
      <path id="Path_89" data-name="Path 89" d="M86.043,115.459v.022a.563.563,0,0,1,.107.007v-.029Z" transform="translate(22.52 -112.135)" fill="#161616"/>
      <rect id="Rectangle_133" data-name="Rectangle 133" width="0.196" height="0.231" transform="translate(107.381 3.378)" fill="#161616"/>
      <path id="Path_90" data-name="Path 90" d="M85.052,115.452c-.146.022-.182.079-.11.174h.022c.075-.073.1-.11.088-.11Z" transform="translate(22.11 -112.138)" fill="#161616"/>
      <path id="Path_91" data-name="Path 91" d="M86.122,115.481v.015l.022.044c.046-.031.039-.05-.022-.059" transform="translate(22.548 -112.127)" fill="#161616"/>
      <path id="Path_92" data-name="Path 92" d="M93.235,115.745h-.371v.175h-.12a.873.873,0,0,1-.188.053c-.1-.064-.151-.079-.151-.042-.125,0-.154-.022-.088-.065a.338.338,0,0,1-.185-.044c-.182.057-.273.141-.273.25h-.174c-.248-.169-.371-.234-.371-.2-.015,0-.022-.011-.022-.031v.031l.054.131-.132.076a.484.484,0,0,0-.3-.163.445.445,0,0,1-.316.154h-.132l.065-.25H90.03a.23.23,0,0,1,.211.248v0c-.143,0-.233-.083-.268-.25h-.159a.087.087,0,1,0,.141-.1l-.132.022-.107.11h.129c0,.109-.044.163-.129.163a1.046,1.046,0,0,0-.6-.306l.075.082a2.073,2.073,0,0,1-.053.224h-.219l-.011-.02v-.154h-.088l-.076-.132H87.713c-.038,0-.069.1-.1.306h-.151v-.141h-.012c-.057-.072-.116-.091-.173-.054l-.219-.1a1.257,1.257,0,0,1-.384.1c0-.044-.031-.08-.1-.11l-.263.054h-.875a6.868,6.868,0,0,0-.688.056c0-.037-.031-.056-.088-.056a.3.3,0,0,1-.152.056l-.207-.11-.667.11-.087-.056a1.646,1.646,0,0,1-.371.056h-.012a4.678,4.678,0,0,1-.569-.056l-.471.056v.012a.133.133,0,0,0-.056-.012H81.5l-.547.054-.044-.11-.547.1-.261-.044-1.445.1-.317-.088v.034c-.064,0-.309-.015-.733-.044a.457.457,0,0,0-.25.1c-.065,0-.093,0-.087.012-.882,0-1.12-.023-.71-.067a1.421,1.421,0,0,0-.7,0h-.306a.318.318,0,0,1-.175-.044.309.309,0,0,1-.173.044h-.525a.56.56,0,0,0-.117.012,1.025,1.025,0,0,0-.14-.068.3.3,0,0,0-.2.125,1.384,1.384,0,0,0-.415-.071,3.826,3.826,0,0,0-.667.107l-.076-.042a.306.306,0,0,1-.175.042h-.175a1.838,1.838,0,0,1-.438-.053,2.316,2.316,0,0,0-.864.154,4.774,4.774,0,0,1-.667-.056l-.219.056-.687.1q-3.522.273-3.74.37h-.71c-.067,0-.107-.046-.122-.141a6.545,6.545,0,0,0,.876-1.782.738.738,0,0,0-.2-.371l-.25.054-.219-.054-.064.044a8.258,8.258,0,0,1-.6,1.214,3.391,3.391,0,0,1-.667,1.248q-.916.1-2.774.471l-.121-.024c-.068.029-.133.06-.2.09q-.861.173-1.906.4l-.107.241-.044.263a.65.65,0,0,0,.141.2c-.167.133-.25.246-.25.339,0,.257.147.4.438.438a2.168,2.168,0,0,0,.963-.395c.211-.141.4-.278.567-.4l2.405-.46a.284.284,0,0,0,.154.054,2.394,2.394,0,0,1-.307.765,2.461,2.461,0,0,0-.393,1.018,1.767,1.767,0,0,0-.35.974,9.4,9.4,0,0,0-.512,1.713,2.265,2.265,0,0,1-.384.365c-.087.175-.174.263-.263.263q-1.475,1.312-2.056,1.311H58.8a.5.5,0,0,1-.261-.48v-.476a5.213,5.213,0,0,1,.743-2.275V121a.365.365,0,0,0-.35-.219H58.84l-.35.393a4.3,4.3,0,0,0-.962,2.318c.022.174.05.263.086.263q0,1.312,1.533,1.488l.437-.088a5.569,5.569,0,0,0,2.194-1.453.6.6,0,0,1,.1.325v.11l-.042.088a.943.943,0,0,1,.219.5,1.989,1.989,0,0,0,1.324.645,3.586,3.586,0,0,0,1.9-.765,3.977,3.977,0,0,0,.83-.612,1.994,1.994,0,0,0,.453-.313,1.458,1.458,0,0,0,1.5,1.092h.207a4.881,4.881,0,0,0,2.769-.884,1.666,1.666,0,0,0-.08.282l.011.186q-.1,0-.261.712l.007,0a.95.95,0,0,0-.019.122c.008.219.223.344.646.371a5.793,5.793,0,0,0,1.148-1.641,8.705,8.705,0,0,1,2.558-2.439c.052,0,.082.052.088.152a9.319,9.319,0,0,0-.176,1.554l.034.569a1.16,1.16,0,0,0,1.1.82,2.283,2.283,0,0,0,1.237-.645l.1-.09a1.725,1.725,0,0,0,1.526.756,1.56,1.56,0,0,1,.468-.076,4.2,4.2,0,0,0,1.174-.415,4.563,4.563,0,0,0-.156.8v.031q.033.308.569.416c.1-.03.148-.054.141-.076a3.155,3.155,0,0,0,.558-.864c.087-.41.178-.623.273-.645a2.99,2.99,0,0,1,.667-.9c.189-.276.3-.415.34-.415a12.432,12.432,0,0,1,1.322-1.126h.141a.079.079,0,0,1,.087.071v.005l.031.3a9.529,9.529,0,0,0-.393,1.8.676.676,0,0,0,.054.23q.078.745,1.258.864a2.622,2.622,0,0,0,.8-.261,7.657,7.657,0,0,0,1.486-1.067,8.293,8.293,0,0,0,1.248-1.559c.152-.256.2-.411.129-.465a.219.219,0,0,0-.218-.044c-.082.026-.208.152-.384.378a6.509,6.509,0,0,1-1.279,1.257,5.222,5.222,0,0,1-1.971.974h-.076c-.079-.037-.122-.072-.132-.109l-.022-.273a4.918,4.918,0,0,1,.242-1.345l-.044-.078a.888.888,0,0,1,.12-.306q-.1-1.051-.962-1.049h-.261c-.271.122-.4.211-.4.261a2.5,2.5,0,0,0-1.039.72c-.094.088-.19.19-.294.3a.189.189,0,0,1-.023-.06,1.155,1.155,0,0,0,.22-.6.588.588,0,0,0,0-.1v-.022l-.01-.076c0-.016,0-.031-.007-.048-.034-.176-.181-.272-.444-.291a.5.5,0,0,0-.283.151,11.019,11.019,0,0,1-.831,1.9c-.024.054-.046.11-.068.166a2.649,2.649,0,0,1-.822.571,4.755,4.755,0,0,1-1.2.268q-.886,0-.886-.5v-.034l.023-.02.125-.169.344-.161a3.667,3.667,0,0,0,1.762-1.366,1.7,1.7,0,0,0,.3-1.016.885.885,0,0,0-.6-.373,2.65,2.65,0,0,0-1.345.569,3.478,3.478,0,0,0-1.422,1.86h-.185l.035.438q-.716.7-1.1.7H75.92c-.037,0-.084-.147-.143-.438.139-.965.2-1.5.2-1.619v-.044c-.175-.614-.444-.92-.808-.92l-.744.25-1.029.809a4.663,4.663,0,0,1-.59.657,2.845,2.845,0,0,1-.57.595c.031-.117.069-.245.114-.386.181-.2.294-.3.337-.3.344-.509.544-.766.6-.766l-.065-.469h-.141c-.1.1-.195.181-.275.254q.247-.647.59-1.469a4.085,4.085,0,0,1,.524-1.433q.345-1.026.556-1.627a.335.335,0,0,0,.2.052,2.6,2.6,0,0,1,.654-.109h.612l.405.044q0-.033.163-.1l.219.054,1.28-.1.207.1a1.837,1.837,0,0,1,.393-.054h.175q.943,0,2.286-.1a.325.325,0,0,0,.121.054l.614-.154a1.62,1.62,0,0,0,.393.1h.175a2.368,2.368,0,0,1,.348-.1h.263a.578.578,0,0,1,.317.078c0-.05.084-.078.25-.078a.393.393,0,0,1,.188.044,1.993,1.993,0,0,1,.381-.044H85.1l.075.044a2.936,2.936,0,0,1,.614-.25h.044a.486.486,0,0,1,.273.1c.037,0,.1-.052.2-.154h.076q.065.11.679.208a4.009,4.009,0,0,1,.569-.1l.219.044.163-.1.317.056a1.917,1.917,0,0,0,.392-.057.635.635,0,0,1,.067.035l.026-.057c.041-.008.083-.019.128-.031h.076c.132,0,.2.018.2.054.365-.029.575-.08.633-.152h.091v.1h.284v-.107l.25.065a.44.44,0,0,0,.208-.109.536.536,0,0,1,.261.078c0,.072.1.046.307-.078H91.3a2.391,2.391,0,0,1,.471.056l.176-.1a2.34,2.34,0,0,0,.4.045h.219a2.791,2.791,0,0,0,.3-.082v.1h.371V116.1l.034,0-.034-.037Zm-13.274,5.066c-.012.005-.014.019-.01.041v.042a2.476,2.476,0,0,1-.994,1.046,3.9,3.9,0,0,1-.643.3,5.3,5.3,0,0,1,.8-.951,1.9,1.9,0,0,1,.845-.479m-6.217-3.91q-1.388,3.337-1.543,3.872a13.937,13.937,0,0,1-.7,1.618h.067c-.024.069-.05.137-.073.2a5.789,5.789,0,0,1-3.075,1.385c-.657,0-.985-.141-.985-.427v-.314a2.577,2.577,0,0,1,.275-.741c.118-.136.242-.283.371-.439.041-.08.076-.161.11-.245a5.569,5.569,0,0,1,1.464-1.208,2.952,2.952,0,0,1-.165.578.518.518,0,0,0,.5.415q.437,0,.732-1.125v-.1c0-.32-.229-.51-.687-.567h-.165q-.459,0-2.133,1.454a3.71,3.71,0,0,0-1.133,1.574q-.257.182-.55.362a6.436,6.436,0,0,1-2.646,1.279.679.679,0,0,1-.731-.626v-.478a4.382,4.382,0,0,1,.132-1.072h0a5.3,5.3,0,0,0,.483-1.071c0-.05-.029-.08-.087-.087h-.044a.336.336,0,0,0-.1.018q.2-.6.532-1.582a10.532,10.532,0,0,0,.7-1.476,2.02,2.02,0,0,0,.286-.524q4.418-.486,7.251-.646l.438.056a1.816,1.816,0,0,0,.438-.11l.263.054.782-.05-.01.029" transform="translate(12.242 -112.573)" fill="#161616"/>
      <path id="Path_93" data-name="Path 93" d="M81.434,115.406a.286.286,0,0,0-.059-.007v.007Z" transform="translate(20.837 -112.157)" fill="#161616"/>
      <path id="Path_94" data-name="Path 94" d="M84.51,115.543c.015,0,.022.029.022.088l.384-.1H84.4Z" transform="translate(21.929 -112.109)" fill="#161616"/>
      <path id="Path_95" data-name="Path 95" d="M84.245,115.347h-.2v.23h.2V115.5a.232.232,0,0,0,.175.107V115.4h-.175Z" transform="translate(21.801 -112.176)" fill="#161616"/>
      <path id="Path_96" data-name="Path 96" d="M60.887,117.544a1.53,1.53,0,1,1-1.531-1.529,1.529,1.529,0,0,1,1.531,1.529" transform="translate(12.349 -111.935)" fill="#ae6676"/>
    </g>
  </g>
</svg>
