<svg xmlns="http://www.w3.org/2000/svg" width="485.662" height="242.723" viewBox="0 0 485.662 242.723">
  <g id="Group_125" data-name="Group 125" transform="translate(-226.537 1909.368) rotate(-90)">
    <path id="Icon_ionic-ios-phone-portrait" data-name="Icon ionic-ios-phone-portrait" d="M217.941,2.25H46.008A35.672,35.672,0,0,0,10.125,37.916V450.945c0,19.947,16.044,36.967,35.883,36.967H217.832c19.838,0,35.015-17.02,35.015-36.967V37.916C252.956,18.077,237.779,2.25,217.941,2.25ZM115.279,27.184H147.8a4.336,4.336,0,1,1,0,8.673H115.279a4.336,4.336,0,0,1,0-8.673Zm16.8,444.467a18.863,18.863,0,1,1,18.863-18.863A18.876,18.876,0,0,1,132.082,471.651Zm101.36-53.119H29.638a2.175,2.175,0,0,1-2.168-2.168V59.706a2.175,2.175,0,0,1,2.168-2.168h203.8a2.174,2.174,0,0,1,2.168,2.168V416.363A2.175,2.175,0,0,1,233.443,418.531Z" transform="translate(1656.52 224.287)" fill="#c56677"/>
  </g>
</svg>
